<svg xmlns="http://www.w3.org/2000/svg" width="64" height="64" viewBox="0 0 64 64">
  <circle cx="32" cy="32" r="30" fill="#4caf50" />
  <path d="M32,8 C18.7,8 8,18.7 8,32 C8,45.3 18.7,56 32,56 C45.3,56 56,45.3 56,32 C56,18.7 45.3,8 32,8 Z M32,52 C20.9,52 12,43.1 12,32 C12,20.9 20.9,12 32,12 C43.1,12 52,20.9 52,32 C52,43.1 43.1,52 32,52 Z" fill="#388e3c" />
  <path d="M32,20 C25.4,20 20,25.4 20,32 C20,38.6 25.4,44 32,44 C38.6,44 44,38.6 44,32 C44,25.4 38.6,20 32,20 Z M32,40 C27.6,40 24,36.4 24,32 C24,27.6 27.6,24 32,24 C36.4,24 40,27.6 40,32 C40,36.4 36.4,40 32,40 Z" fill="#ffffff" />
  <path d="M48,16 L44,16 L44,12 C44,10.9 43.1,10 42,10 C40.9,10 40,10.9 40,12 L40,16 L36,16 C34.9,16 34,16.9 34,18 C34,19.1 34.9,20 36,20 L40,20 L40,24 C40,25.1 40.9,26 42,26 C43.1,26 44,25.1 44,24 L44,20 L48,20 C49.1,20 50,19.1 50,18 C50,16.9 49.1,16 48,16 Z" fill="#a5d6a7" />
  <path d="M26,40 L22,40 L22,36 C22,34.9 21.1,34 20,34 C18.9,34 18,34.9 18,36 L18,40 L14,40 C12.9,40 12,40.9 12,42 C12,43.1 12.9,44 14,44 L18,44 L18,48 C18,49.1 18.9,50 20,50 C21.1,50 22,49.1 22,48 L22,44 L26,44 C27.1,44 28,43.1 28,42 C28,40.9 27.1,40 26,40 Z" fill="#a5d6a7" />
</svg> 